<svg width="120" height="70" viewBox="0 0 120 70" fill="none" xmlns="http://www.w3.org/2000/svg">
    <path d="M117.986 53.3098L116.915 52.2178C117.216 51.7782 117.47 51.348 117.685 50.9131L117.699 50.8895L117.709 50.8658C118.761 48.696 119.081 46.2378 118.665 43.5574L118.579 43.009C118.163 40.3239 117.149 38.0737 115.561 36.3246L115.532 36.2915L115.499 36.2584C113.887 34.5519 111.825 33.3653 109.376 32.7413L109.309 32.7224L109.242 32.7082C109.08 32.6704 108.908 32.6421 108.74 32.609C109.458 31.8668 110.075 31.0442 110.572 30.146C111.739 28.0377 112.213 25.7307 111.974 23.2867C111.73 20.8096 110.807 18.6256 109.295 16.9616L109.161 16.815L109.018 16.6827C108.778 16.4605 108.53 16.2525 108.276 16.0492C108.3 16.0161 108.324 15.983 108.348 15.9547C108.841 15.2787 109.171 14.5128 109.333 13.7092C110.123 13.9928 110.969 14.1488 111.873 14.1488C112.964 14.1488 113.987 13.9361 114.906 13.5201C115.81 13.1135 116.589 12.5463 117.23 11.8324C117.828 11.1659 118.292 10.4095 118.598 9.58698C118.895 8.79279 119.043 7.97024 119.043 7.14769V6.98696C119.043 6.13132 118.885 5.28513 118.574 4.48149C118.259 3.65894 117.79 2.91202 117.178 2.2502C116.532 1.55056 115.748 0.992734 114.844 0.595641C113.94 0.198547 112.94 0 111.878 0C110.816 0 109.816 0.198547 108.908 0.600368C108.008 0.992734 107.224 1.55056 106.573 2.2502C105.966 2.91202 105.492 3.65894 105.177 4.48149C105.134 4.59494 105.1 4.71312 105.062 4.83131C104.101 4.08912 103.024 3.47457 101.829 3.00184C100.241 2.36838 98.4372 2.04692 96.4666 2.04692C95.8495 2.04692 95.2086 2.08001 94.5581 2.14147C92.1139 2.37784 89.904 3.0302 87.9955 4.09385C85.9723 5.21422 84.3842 6.8215 83.2745 8.87315C83.155 9.09534 83.045 9.32698 82.9397 9.55389C81.6626 8.23497 80.1607 7.12405 78.4435 6.25895C76.2337 5.13858 73.6986 4.48149 70.9052 4.30185C70.4126 4.26876 69.9151 4.25458 69.4368 4.25458C67.203 4.25458 65.0937 4.59967 63.1756 5.2804C61.5684 5.84768 60.1 6.62768 58.7846 7.59678C58.6459 7.36042 58.4976 7.12878 58.3302 6.91132C57.2971 5.57822 55.7951 4.71785 54.1019 4.49567L52.1647 4.24039C51.8825 4.20258 51.5955 4.18367 51.3085 4.18367C48.1325 4.18367 45.4156 6.53787 44.9947 9.65316L44.4972 13.3168L42.7944 13.0899L43.2919 9.42625C43.7559 5.98004 41.3021 2.79857 37.8151 2.34002L35.9306 2.08947C35.6484 2.05165 35.3614 2.03274 35.0744 2.03274C31.8983 2.03274 29.1815 4.38694 28.7606 7.50223L28.2201 11.511C27.3639 10.055 26.2972 8.84479 25.0249 7.91351L25.0058 7.89933L24.9866 7.88515C23.0447 6.49059 20.8109 5.66804 18.3524 5.4364C17.941 5.39858 17.5153 5.37967 17.0896 5.37967C15.1237 5.37967 13.0717 5.7815 10.8141 6.60877L7.45626 7.83787L6.82487 8.06951L4.67722 8.85425C0.975037 10.211 -0.923888 14.2906 0.444104 17.9496L7.42756 36.6035C8.46551 39.369 11.1632 41.2268 14.1432 41.2268C14.9037 41.2268 15.6546 41.0992 16.3817 40.8628L11.0245 58.9211C10.4936 60.7175 10.6945 62.6179 11.5889 64.2677C12.5025 65.9459 14.0284 67.1703 15.8794 67.7092L16.1999 67.8038C16.8552 67.9929 17.5296 68.0874 18.2136 68.0874C21.3753 68.0874 24.2022 65.9932 25.0919 63.0008L25.1253 62.8874C26.6894 63.275 28.1962 63.4735 29.612 63.4735C30.3534 63.4735 31.0852 63.4216 31.7931 63.3128H31.8266L31.8601 63.3034C33.9599 62.963 35.8253 62.1924 37.4325 61.0295L37.6382 62.7692C38.0112 65.9507 40.7329 68.3474 43.9663 68.3474C44.215 68.3474 44.4638 68.3332 44.7125 68.3049L46.6019 68.0874C48.2999 67.8936 49.8162 67.0616 50.8732 65.7427C51.9303 64.4237 52.3991 62.7739 52.203 61.0957L51.7581 57.3139L53.4657 57.12L53.9106 60.9019C54.2836 64.0834 57.0053 66.4801 60.2387 66.4801C60.4874 66.4801 60.7362 66.4659 60.9849 66.4376L62.9269 66.2154C64.2805 66.0594 65.4811 65.4968 66.4282 64.6601C67.4374 65.5961 68.571 66.4376 69.8338 67.1656C72.0149 68.423 74.66 69.1605 77.6926 69.359C78.1948 69.3921 78.697 69.4063 79.1801 69.4063C81.5669 69.4063 83.6955 69.0187 85.6901 68.2245C87.9956 67.331 89.9997 66.0168 91.6403 64.3197C91.9512 64.0125 92.243 63.691 92.5252 63.3648C93.6971 65.7568 96.1844 67.3878 98.9682 67.3878C99.3317 67.3878 99.7 67.3594 100.059 67.3074L100.389 67.2554C102.259 66.9718 103.919 65.9885 105.052 64.4852C105.717 63.6059 106.157 62.6085 106.353 61.5637L107.554 62.8212C108.817 64.3717 110.768 65.2888 112.854 65.2888C113.213 65.2888 113.576 65.2605 113.935 65.2085C116.585 64.8066 118.766 62.9961 119.622 60.4859C120.478 57.971 119.856 55.2291 117.996 53.3287L117.986 53.3098Z" fill="#1C1B1F"/>
    <path d="M17.9217 9.82801C16.2524 9.67201 14.4061 9.99346 12.3637 10.7404L9.00588 11.9695L8.3745 12.2011L6.22685 12.9858C4.86365 13.4822 4.11747 14.995 4.64362 16.3942L11.6271 35.0482C12.1293 36.3955 13.6599 37.1329 15.0757 36.6129L15.3914 36.4995C16.7546 36.0031 17.5008 34.4904 16.9747 33.0911L16.3146 31.3278C15.8124 29.9805 16.482 28.4394 17.8978 27.9194L18.7349 27.6121C20.7295 26.8841 22.3414 25.9387 23.5563 24.7285C24.7186 23.5372 25.4696 22.1994 25.7949 20.6724C26.1153 19.1408 25.9384 17.5572 25.3165 15.8979L25.1204 15.3779C24.4795 13.6666 23.5707 12.3524 22.3366 11.4447C21.0308 10.5087 19.5815 9.97928 17.9122 9.82328L17.9217 9.82801ZM20.0024 19.8452C19.902 20.5306 19.6054 21.1688 19.1414 21.6888C18.6823 22.2088 18.0031 22.6343 17.166 22.9416L16.0659 23.3434C14.7027 23.8397 13.1433 23.1779 12.6172 21.7786L11.5505 18.9281C11.0483 17.5808 11.7179 16.0397 13.1338 15.5197L14.2339 15.1179C15.071 14.8106 15.8124 14.716 16.5585 14.7964C17.2521 14.8957 17.8978 15.1888 18.424 15.6473C18.9501 16.1059 19.3806 16.7724 19.6724 17.5477C20.0024 18.427 20.0981 19.1597 19.9976 19.8452H20.0024Z" fill="white"/>
    <path d="M46.4589 18.0202L39.6429 17.1173C38.5906 16.9802 37.8683 16.0489 38.0118 15.0042L38.8489 8.81614C38.9876 7.77613 38.2701 6.84486 37.2178 6.70304L35.3332 6.45249C34.2809 6.3154 33.3387 7.02449 33.1952 8.0645L30.3492 29.0963C30.2105 30.1363 30.9279 31.0676 31.9802 31.2094L33.8648 31.4599C34.9171 31.597 35.8594 30.8879 36.0029 29.8479L36.8543 23.5512C36.993 22.5111 37.9353 21.7973 38.9924 21.9391L45.8084 22.8421C46.8607 22.9792 47.583 23.9104 47.4395 24.9552L46.5881 31.2519C46.4494 32.2919 47.1668 33.2232 48.2191 33.365L50.1563 33.6203C51.2086 33.7574 52.1509 33.0483 52.2944 32.0083L55.1404 10.9765C55.2791 9.93651 54.5616 9.00523 53.5093 8.86342L51.5721 8.60814C50.5198 8.47105 49.5776 9.18014 49.4341 10.2202L48.597 16.4082C48.4631 17.3962 47.4586 18.1526 46.4589 18.0202Z" fill="white"/>
    <path d="M89.4347 43.2266C88.3967 41.9408 87.067 40.8582 85.4407 40.0357C83.8144 39.2131 81.8868 38.6978 79.653 38.556C77.4193 38.4142 75.4438 38.6742 73.7219 39.284C71.9999 39.8938 70.5411 40.7968 69.3453 41.936C68.1495 43.0753 67.1641 44.399 66.5088 45.907C65.8535 47.3583 65.4709 48.8852 65.3704 50.431L65.3178 51.2016C65.2222 52.6339 65.4087 54.0852 65.8679 55.6121C66.3271 57.1391 67.0732 58.5667 68.1064 59.9093C69.1396 61.2471 70.4645 62.3864 72.086 63.3224C73.7075 64.2584 75.6878 64.7737 77.9741 64.9202C80.2605 65.0668 82.2407 64.8067 84.0249 64.0929C85.7516 63.4264 87.2153 62.4715 88.4158 61.2187C89.6164 60.0227 90.5444 58.6991 91.1997 57.2431C91.855 55.7918 92.228 54.3736 92.3237 52.9412L92.3763 52.1707C92.4768 50.6248 92.2998 49.0648 91.8406 47.5426C91.2188 45.9543 90.4726 44.5219 89.4347 43.2361V43.2266ZM85.7947 55.1772C85.3977 56.0943 84.7806 56.9405 84.0679 57.6118C83.3505 58.2878 82.5325 58.8409 81.4993 59.1623C80.5236 59.4885 79.4521 59.6398 78.2229 59.5594C76.9936 59.4791 75.9509 59.1907 75.0277 58.7463C74.1045 58.2973 73.3631 57.6449 72.6839 56.8791C72.0621 56.118 71.6125 55.2576 71.2872 54.2412C71.0146 53.2816 70.9142 52.2227 70.9859 51.1212C71.0624 49.963 71.2968 48.9277 71.6986 47.9539C72.1004 46.9801 72.6552 46.1859 73.4253 45.5713C74.1428 44.8953 75.0133 44.399 75.9891 44.0728C76.9649 43.7466 78.0363 43.5953 79.2656 43.6757C80.4949 43.7561 81.485 44.0397 82.4082 44.4888C83.3313 44.9379 84.1301 45.543 84.7519 46.2993C85.3737 47.0604 85.8234 47.9208 86.1486 48.8805C86.4165 49.8968 86.5743 50.9557 86.4978 52.1139C86.426 53.2154 86.1869 54.2554 85.7947 55.1678V55.1772Z" fill="white"/>
    <path d="M102.392 17.8221C100.943 17.3494 99.2882 17.1225 97.4371 17.1319L95.4712 17.1555C94.2898 17.1555 93.4862 16.957 92.8739 16.4606C92.3239 16.0115 91.989 15.4348 91.9173 14.721C91.8647 14.1726 91.9173 13.6101 92.1565 13.1421C92.3956 12.6741 92.7448 12.2533 93.3283 11.9177C93.8593 11.5915 94.572 11.4119 95.3516 11.3362C96.2413 11.2511 96.9827 11.3457 97.5662 11.5679C98.212 11.8373 98.6377 12.1871 99.0203 12.6504C99.1543 12.8584 99.2882 13.0712 99.4221 13.3312C99.6421 13.8653 100.187 14.2577 100.8 14.1962L103.751 13.9126C104.588 13.8322 105.128 13.057 104.937 12.2439C104.674 11.27 104.248 10.3671 103.67 9.64385C102.77 8.5093 101.622 7.67729 100.159 7.09583C98.6951 6.51437 96.9396 6.34892 94.9929 6.53801C93.0987 6.71765 91.5203 7.20456 90.1858 7.94202C88.8561 8.67948 87.8899 9.71476 87.225 10.9486C86.5601 12.1777 86.3066 13.5912 86.4597 15.1843C86.6749 17.3825 87.5742 19.0748 89.2052 20.2519C90.8363 21.429 92.917 22.0058 95.4425 21.9869L97.3462 21.9159C98.9151 21.8781 100.058 22.1003 100.771 22.4738C101.484 22.8519 101.938 23.4712 102.01 24.2418C102.077 24.9036 101.962 25.4662 101.622 26.0003C101.283 26.5345 100.819 26.9647 100.12 27.3098C99.4221 27.6549 98.5468 27.8487 97.4849 27.9527C96.3178 28.0662 95.3564 27.9905 94.6007 27.7305C93.8449 27.4705 93.247 27.0829 92.8596 26.5676C92.673 26.3643 92.5391 26.1563 92.4626 25.9389C92.1756 25.3007 91.5777 24.9131 90.8507 24.984L88.0668 25.2487C87.2298 25.3291 86.6893 26.1043 86.8806 26.9174C87.1437 27.8913 87.6268 28.7894 88.2629 29.56C89.2148 30.6898 90.4823 31.5691 92.1086 32.1317C93.7349 32.6989 95.6673 32.9022 97.9489 32.68C100.063 32.4767 101.866 31.9709 103.359 31.1626C104.851 30.3542 105.927 29.3047 106.645 28.0142C107.362 26.7236 107.668 25.3054 107.515 23.7123C107.362 22.1712 106.846 20.8901 105.961 19.921C105.033 19.0654 103.837 18.2948 102.383 17.8221H102.392Z" fill="white"/>
    <path d="M35.6062 43.6283C34.3625 42.5173 32.6836 41.6901 30.5934 41.0802L27.159 40.0875L26.5133 39.9031L24.313 39.265C22.9164 38.8631 21.4097 39.6337 20.9839 41.0661L15.3206 60.1549C14.9141 61.5353 15.6937 63.0244 17.143 63.4451L17.4635 63.5397C18.8602 63.9415 20.3669 63.1709 20.7926 61.7386L21.3283 59.9375C21.7349 58.5571 23.2081 57.7204 24.6574 58.1364L25.5136 58.3869C27.5513 58.9778 29.4167 59.1716 31.1243 58.9164C32.7793 58.6469 34.1856 58.0182 35.3718 56.9782C36.5532 55.9382 37.3712 54.5625 37.8734 52.8654L38.0312 52.336C38.5526 50.5868 38.6148 48.9937 38.17 47.5377C37.6869 46.0155 36.845 44.7344 35.6014 43.6283H35.6062ZM31.2248 52.8938C30.7321 53.3854 30.1055 53.7211 29.4215 53.8676C28.7375 54.0141 27.9387 53.9574 27.0825 53.7069L25.9537 53.3807C24.557 52.9789 23.7104 51.5229 24.1313 50.0905L24.997 47.1737C25.4036 45.7934 26.8768 44.9566 28.3261 45.3726L29.455 45.6988C30.3112 45.9494 30.9617 46.3086 31.5118 46.8145C32.0092 47.3014 32.3488 47.9206 32.4971 48.5967C32.6454 49.2727 32.588 50.0621 32.3488 50.8563C32.081 51.7592 31.7174 52.4021 31.22 52.889L31.2248 52.8938Z" fill="white"/>
    <path d="M54.9389 47.5802L48.1085 48.3649C47.0514 48.4878 46.1235 47.7598 45.9991 46.7151L45.2721 40.5129C45.1477 39.4681 44.2198 38.7401 43.1627 38.863L41.2734 39.0805C40.2163 39.2034 39.4797 40.1205 39.604 41.1652L42.0817 62.2396C42.2061 63.2843 43.134 64.0123 44.1911 63.8894L46.0805 63.6719C47.1375 63.549 47.8741 62.6319 47.7498 61.5872L47.0084 55.2763C46.884 54.2315 47.6206 53.3144 48.6777 53.1915L55.5081 52.4068C56.5652 52.2839 57.4931 53.0119 57.6175 54.0566L58.3589 60.3676C58.4833 61.4123 59.4112 62.1403 60.4683 62.0174L62.4103 61.7952C63.4673 61.6723 64.2039 60.7552 64.0796 59.7105L61.6019 38.6361C61.4775 37.5914 60.5496 36.8634 59.4925 36.9863L57.5505 37.2085C56.4934 37.3314 55.7568 38.2485 55.8812 39.2932L56.6082 45.4955C56.723 46.4835 55.9386 47.462 54.9389 47.5802Z" fill="white"/>
    <path d="M80.3956 13.3783C79.3576 12.0925 78.0279 11.01 76.4016 10.1874C74.7754 9.36485 72.8477 8.84957 70.614 8.70775C68.3802 8.56593 66.4048 8.82594 64.6828 9.43576C62.9609 10.0456 61.502 10.9485 60.3062 12.0878C59.1104 13.2271 58.1251 14.5507 57.4698 16.0587C56.8145 17.51 56.4318 19.0369 56.3314 20.5827L56.2788 21.3533C56.1831 22.7857 56.3696 24.237 56.8288 25.7639C57.288 27.2908 58.0342 28.7184 59.0674 30.061C60.1005 31.4035 61.4255 32.5381 63.047 33.4741C64.6685 34.4101 66.6487 34.9254 68.9351 35.0719C71.2214 35.2185 73.2017 34.9585 74.9858 34.2447C76.7699 33.5308 78.1762 32.6232 79.3768 31.3705C80.5774 30.1745 81.5053 28.8508 82.1606 27.3948C82.8159 25.9388 83.189 24.5253 83.2847 23.0929L83.3373 22.3224C83.4377 20.7766 83.2607 19.2166 82.8015 17.6944C82.1797 16.106 81.4336 14.6736 80.3956 13.3878V13.3783ZM76.7508 25.3242C76.3538 26.2413 75.7368 27.0875 75.0241 27.7588C74.3066 28.4348 73.4887 28.9879 72.4555 29.3094C71.4797 29.6355 70.4083 29.7868 69.179 29.7064C67.9497 29.6261 66.907 29.3377 65.9839 28.8933C65.0607 28.4443 64.3193 27.7919 63.6401 27.0261C63.0183 26.265 62.5687 25.4046 62.2434 24.3882C61.9181 23.3719 61.8703 22.3697 61.9421 21.2682C62.0186 20.11 62.253 19.0747 62.6548 18.1009C63.0565 17.1271 63.6114 16.3329 64.3815 15.7183C65.099 15.0423 65.9695 14.546 66.9453 14.2198C67.921 13.8936 68.9925 13.7423 70.2218 13.8227C71.451 13.9031 72.4412 14.1867 73.3643 14.6358C74.2875 15.0849 75.0863 15.69 75.7081 16.4464C76.3299 17.2074 76.7795 18.0678 77.1048 19.0275C77.3726 20.0438 77.5305 21.1027 77.4539 22.2609C77.3822 23.3624 77.143 24.4024 76.7508 25.3148V25.3242Z" fill="white"/>
    <path d="M113.246 60.8123C115.404 60.4861 116.245 57.9002 114.767 56.3875L112.62 54.1988C111.677 53.2249 111.606 51.6697 112.519 50.6344C112.95 50.1238 113.371 49.5565 113.672 48.9514C114.313 47.6231 114.519 46.03 114.241 44.2241L114.155 43.6758C113.878 41.8747 113.251 40.4045 112.228 39.2699C111.214 38.1921 109.908 37.4405 108.257 37.0197C106.617 36.651 104.799 36.5943 102.699 36.911L98.4998 37.5445L97.0074 37.7714L95.5151 37.9983C94.0801 38.2157 93.0422 39.5488 93.267 41.0238L96.3139 60.6846C96.5339 62.1028 97.8828 63.1286 99.3751 62.9065L99.7052 62.8545C101.14 62.637 102.178 61.3039 101.953 59.829L101.532 57.0966C101.312 55.6784 102.288 54.298 103.78 54.0711L103.838 54.0617C104.723 53.9293 105.565 54.246 106.172 54.8842L110.97 59.9141C111.477 60.6184 112.371 60.9304 113.256 60.7981L113.246 60.8123ZM99.5808 44.8812C99.3608 43.463 100.337 42.0827 101.829 41.8558L103.876 41.5485C104.704 41.4209 105.45 41.4776 106.052 41.7234C106.655 41.9692 107.22 42.3285 107.645 42.8816C108.071 43.4347 108.344 44.1154 108.473 44.938C108.592 45.7038 108.525 46.3845 108.286 47.0322C108.047 47.6798 107.617 48.1951 107.114 48.6064C106.559 49.0271 105.919 49.2918 105.091 49.4147L103.044 49.722C101.609 49.9395 100.212 48.9751 99.9826 47.5002L99.576 44.8765L99.5808 44.8812Z" fill="white"/>
    <path d="M111.883 9.88959C111.415 9.88959 111.003 9.80923 110.644 9.6485C110.286 9.48777 109.984 9.27031 109.745 9.00558C109.506 8.73613 109.324 8.44304 109.205 8.11685C109.085 7.79067 109.023 7.46921 109.023 7.14303V6.9823C109.023 6.64666 109.085 6.31575 109.209 5.99429C109.334 5.67283 109.516 5.37974 109.764 5.11501C110.008 4.85028 110.31 4.64228 110.664 4.48628C111.018 4.33028 111.429 4.25464 111.888 4.25464C112.347 4.25464 112.759 4.335 113.113 4.48628C113.467 4.64228 113.768 4.85028 114.012 5.11501C114.256 5.37974 114.442 5.67283 114.562 5.99429C114.681 6.31575 114.748 6.64666 114.748 6.9823V7.14303C114.748 7.46921 114.686 7.79067 114.567 8.11685C114.447 8.44304 114.265 8.73613 114.026 9.00558C113.787 9.27504 113.486 9.48777 113.127 9.6485C112.768 9.80923 112.357 9.88959 111.888 9.88959H111.883ZM111.883 9.37432C112.347 9.37432 112.749 9.27031 113.093 9.06231C113.438 8.85431 113.706 8.5754 113.897 8.23031C114.088 7.88521 114.184 7.49757 114.184 7.07211C114.184 6.64666 114.088 6.24484 113.897 5.89501C113.706 5.54519 113.438 5.27101 113.093 5.07246C112.749 4.86919 112.347 4.76992 111.883 4.76992C111.419 4.76992 111.018 4.86919 110.673 5.07246C110.329 5.27574 110.061 5.54992 109.87 5.89501C109.678 6.24484 109.583 6.63248 109.583 7.07211C109.583 7.51175 109.678 7.88049 109.87 8.23031C110.061 8.58013 110.329 8.85431 110.673 9.06231C111.018 9.27031 111.419 9.37432 111.883 9.37432ZM110.659 8.56594V5.45065H111.501V8.56594H110.659ZM111.046 7.67721V6.9823H111.931C112.103 6.9823 112.228 6.94448 112.304 6.87357C112.376 6.80266 112.414 6.69866 112.414 6.56629C112.414 6.43393 112.376 6.32047 112.304 6.24956C112.232 6.17865 112.108 6.14084 111.931 6.14084H111.046V5.45537H111.888C112.328 5.45537 112.668 5.54992 112.902 5.73901C113.136 5.92811 113.251 6.20229 113.251 6.56629C113.251 6.9303 113.132 7.19975 112.902 7.38884C112.668 7.58266 112.328 7.67721 111.888 7.67721H111.046ZM112.505 8.56594L111.764 7.36521H112.639L113.423 8.56594H112.51H112.505Z" fill="white"/>
</svg>
