<svg width="25" height="17" viewBox="0 0 25 17" fill="none" xmlns="http://www.w3.org/2000/svg">
    <path d="M10.1433 7.86681C10.1433 7.86681 12.4622 7.69061 12.4622 4.91585C12.4622 2.14339 10.8895 0.776695 8.4855 0.776695L0.250092 0.763672V16.0854H8.67702C8.67702 16.0854 12.8905 16.2187 12.8905 11.4889C12.8905 11.4889 13.2 7.86681 10.1433 7.86681ZM3.31443 3.06192H7.52789C7.52789 3.06192 8.96966 3.08567 8.96966 4.95492C8.96966 6.89235 7.52789 6.89235 7.52789 6.89235H3.31443V3.06192ZM7.91093 13.7871H3.31443V9.1906H7.91093C7.91093 9.1906 10.2092 9.21435 10.2092 11.4889C10.2092 13.7634 8.24188 13.7871 7.91093 13.7871Z" fill="#D9D9D9"/>
    <path d="M19.4024 4.59442C13.6468 4.59442 13.6568 10.3401 13.6568 10.3401C13.6568 10.3401 13.2737 16.0857 19.4024 16.0857C19.4024 16.0857 24.765 16.0857 24.765 11.4892H21.7007C21.7007 11.4892 21.7007 13.7874 19.4024 13.7874C19.4024 13.7874 17.1041 13.7874 17.1041 10.7231C17.1041 10.7231 23.2328 10.7231 24.765 10.7231C24.765 9.19093 24.765 4.59442 19.4024 4.59442ZM17.1041 9.19093C17.1041 9.19093 17.0536 6.89267 19.4024 6.89267C21.7504 6.89267 21.7007 9.19093 21.7007 9.19093H17.1041Z" fill="#D9D9D9"/>
    <path d="M22.4669 2.29602H16.3383V3.82819H22.4669V2.29602Z" fill="#D9D9D9"/>
</svg>
