<svg width="27" height="28" viewBox="0 0 27 28" fill="none" xmlns="http://www.w3.org/2000/svg">
    <path d="M13.4991 1.00024C20.46 1.00024 26.092 6.63228 26.092 13.5827C26.092 20.5331 20.46 26.1756 13.4991 26.1756C6.53816 26.1756 0.906128 20.5436 0.906128 13.5932C0.906128 6.64283 6.53816 1.00024 13.4991 1.00024Z" fill="#F7F7F7"/>
    <path d="M13.5 27.0721C6.05391 27.0721 0 21.0288 0 13.5932C0 6.14712 6.05391 0.10376 13.5 0.10376C20.9461 0.10376 27 6.14712 27 13.5827C27 21.0182 20.9461 27.0721 13.5 27.0721ZM24.8801 15.4284C24.4898 15.3018 21.3152 14.3631 17.6977 14.9327C19.2059 19.0671 19.8176 22.4421 19.9336 23.1382C22.5281 21.3979 24.3738 18.6346 24.8801 15.4284ZM18.0035 24.2034C17.8348 23.1909 17.1598 19.6682 15.5461 15.4706C15.525 15.4811 15.4934 15.4917 15.4723 15.4917C8.96484 17.7592 6.63398 22.2628 6.42305 22.6846C8.37422 24.2034 10.8316 25.1104 13.5 25.1104C15.0926 25.121 16.6219 24.794 18.0035 24.2034ZM4.93594 21.303C5.19961 20.86 8.36367 15.6288 14.3121 13.6987C14.4598 13.646 14.618 13.6038 14.7656 13.5616C14.4809 12.9077 14.1645 12.2538 13.827 11.6104C8.06836 13.3295 2.47852 13.2557 1.97227 13.2452C1.97227 13.3612 1.96172 13.4772 1.96172 13.5932C1.97227 16.5569 3.09023 19.2569 4.93594 21.303ZM2.21484 11.2413C2.73164 11.2518 7.47773 11.2729 12.8777 9.83853C10.9688 6.44244 8.90156 3.59478 8.60625 3.18345C5.36836 4.7022 2.96367 7.67642 2.21484 11.2413ZM10.8 2.40298C11.1164 2.82486 13.2152 5.67251 15.1031 9.14244C19.2059 7.60259 20.9355 5.28228 21.1465 4.98697C19.1109 3.18345 16.432 2.08657 13.5 2.08657C12.5719 2.08657 11.6648 2.20259 10.8 2.40298ZM22.4227 6.31587C22.1801 6.64283 20.25 9.12134 15.9891 10.8616C16.2527 11.41 16.5164 11.969 16.759 12.528C16.8434 12.7284 16.9277 12.9288 17.0121 13.1186C20.8512 12.6335 24.6586 13.4139 25.0383 13.4878C25.0066 10.7772 24.0363 8.27759 22.4227 6.31587Z" fill="#D9D9D9"/>
</svg>
