<svg width="28" height="28" viewBox="0 0 28 28" fill="none" xmlns="http://www.w3.org/2000/svg">
    <path d="M9.16367 13.721C9.16367 11.2581 11.1609 9.26098 13.6253 9.26098C16.0897 9.26098 18.088 11.2581 18.088 13.721C18.088 16.1839 16.0897 18.181 13.6253 18.181C11.1609 18.181 9.16367 16.1839 9.16367 13.721ZM6.75123 13.721C6.75123 17.5152 9.82874 20.5909 13.6253 20.5909C17.4218 20.5909 20.4993 17.5152 20.4993 13.721C20.4993 9.92671 17.4218 6.85106 13.6253 6.85106C9.82874 6.85106 6.75123 9.92671 6.75123 13.721ZM19.165 6.57866C19.1649 6.89619 19.259 7.20663 19.4354 7.47072C19.6118 7.73481 19.8626 7.94069 20.1561 8.06232C20.4496 8.18395 20.7726 8.21587 21.0842 8.15405C21.3959 8.09223 21.6822 7.93944 21.9069 7.715C22.1317 7.49056 22.2848 7.20455 22.3469 6.89314C22.409 6.58174 22.3773 6.25892 22.2559 5.96551C22.1344 5.6721 21.9286 5.42128 21.6645 5.24476C21.4004 5.06824 21.0898 4.97396 20.7721 4.97383H20.7715C20.3456 4.97403 19.9372 5.14315 19.636 5.44405C19.3348 5.74496 19.1654 6.15304 19.165 6.57866ZM8.21695 24.6111C6.91177 24.5517 6.20237 24.3344 5.73093 24.1509C5.10592 23.9077 4.65997 23.6181 4.19111 23.1501C3.72224 22.6822 3.43201 22.2369 3.18976 21.6123C3.00599 21.1414 2.78858 20.4322 2.72925 19.1278C2.66435 17.7175 2.65139 17.2939 2.65139 13.7211C2.65139 10.1483 2.66542 9.72582 2.72925 8.31439C2.78869 7.01 3.0077 6.3022 3.18976 5.82987C3.43309 5.20523 3.72289 4.75955 4.19111 4.29097C4.65933 3.82239 5.10485 3.53233 5.73093 3.29022C6.20215 3.10656 6.91177 2.88928 8.21695 2.82999C9.62804 2.76513 10.0519 2.75218 13.6253 2.75218C17.1986 2.75218 17.623 2.7662 19.0352 2.82999C20.3404 2.88939 21.0486 3.10827 21.5212 3.29022C22.1462 3.53233 22.5922 3.82303 23.0611 4.29097C23.5299 4.75891 23.8191 5.20523 24.0624 5.82987C24.2462 6.30081 24.4636 7.01 24.5229 8.31439C24.5878 9.72582 24.6008 10.1483 24.6008 13.7211C24.6008 17.2939 24.5878 17.7164 24.5229 19.1278C24.4635 20.4322 24.245 21.1412 24.0624 21.6123C23.8191 22.2369 23.5293 22.6826 23.0611 23.1501C22.5928 23.6177 22.1462 23.9077 21.5212 24.1509C21.05 24.3345 20.3404 24.5518 19.0352 24.6111C17.6241 24.676 17.2002 24.6889 13.6253 24.6889C10.0503 24.6889 9.62761 24.676 8.21695 24.6111ZM8.1061 0.423064C6.68098 0.487925 5.70716 0.713761 4.85671 1.04449C3.97595 1.38603 3.23035 1.84423 2.48529 2.58767C1.74022 3.33111 1.28292 4.07744 0.941181 4.95767C0.610255 5.80814 0.384283 6.78084 0.319383 8.20511C0.253412 9.63163 0.238312 10.0877 0.238312 13.721C0.238312 17.3543 0.253412 17.8103 0.319383 19.2369C0.384283 20.6612 0.610255 21.6338 0.941181 22.4843C1.28292 23.364 1.74033 24.1112 2.48529 24.8543C3.23025 25.5974 3.97595 26.055 4.85671 26.3975C5.70876 26.7282 6.68098 26.954 8.1061 27.0189C9.53422 27.0838 9.98981 27.0999 13.6253 27.0999C17.2608 27.0999 17.7171 27.0848 19.1445 27.0189C20.5697 26.954 21.5429 26.7282 22.3939 26.3975C23.2741 26.055 24.0202 25.5977 24.7653 24.8543C25.5103 24.1109 25.9667 23.364 26.3094 22.4843C26.6403 21.6338 26.8673 20.6611 26.9312 19.2369C26.9961 17.8093 27.0112 17.3543 27.0112 13.721C27.0112 10.0877 26.9961 9.63163 26.9312 8.20511C26.8663 6.78074 26.6403 5.80761 26.3094 4.95767C25.9667 4.07798 25.5092 3.33229 24.7653 2.58767C24.0214 1.84305 23.2741 1.38603 22.3949 1.04449C21.5429 0.713761 20.5696 0.486855 19.1455 0.423064C17.7182 0.358203 17.2618 0.342041 13.6264 0.342041C9.99088 0.342041 9.53422 0.357132 8.1061 0.423064Z" fill="#D9D9D9"/>
    <path d="M9.16367 13.721C9.16367 11.2581 11.1609 9.26098 13.6253 9.26098C16.0897 9.26098 18.088 11.2581 18.088 13.721C18.088 16.1839 16.0897 18.181 13.6253 18.181C11.1609 18.181 9.16367 16.1839 9.16367 13.721ZM6.75123 13.721C6.75123 17.5152 9.82874 20.5909 13.6253 20.5909C17.4218 20.5909 20.4993 17.5152 20.4993 13.721C20.4993 9.92671 17.4218 6.85106 13.6253 6.85106C9.82874 6.85106 6.75123 9.92671 6.75123 13.721ZM19.165 6.57866C19.1649 6.89619 19.259 7.20663 19.4354 7.47072C19.6118 7.73481 19.8626 7.94069 20.1561 8.06232C20.4496 8.18395 20.7726 8.21587 21.0842 8.15405C21.3959 8.09223 21.6822 7.93944 21.9069 7.715C22.1317 7.49056 22.2848 7.20455 22.3469 6.89314C22.409 6.58174 22.3773 6.25892 22.2559 5.96551C22.1344 5.6721 21.9286 5.42128 21.6645 5.24476C21.4004 5.06824 21.0898 4.97396 20.7721 4.97383H20.7715C20.3456 4.97403 19.9372 5.14315 19.636 5.44405C19.3348 5.74496 19.1654 6.15304 19.165 6.57866ZM8.21695 24.6111C6.91177 24.5517 6.20237 24.3344 5.73093 24.1509C5.10592 23.9077 4.65997 23.6181 4.19111 23.1501C3.72224 22.6822 3.43201 22.2369 3.18976 21.6123C3.00599 21.1414 2.78858 20.4322 2.72925 19.1278C2.66435 17.7175 2.65139 17.2939 2.65139 13.7211C2.65139 10.1483 2.66542 9.72582 2.72925 8.31439C2.78869 7.01 3.0077 6.3022 3.18976 5.82987C3.43309 5.20523 3.72289 4.75955 4.19111 4.29097C4.65933 3.82239 5.10485 3.53233 5.73093 3.29022C6.20215 3.10656 6.91177 2.88928 8.21695 2.82999C9.62804 2.76513 10.0519 2.75218 13.6253 2.75218C17.1986 2.75218 17.623 2.7662 19.0352 2.82999C20.3404 2.88939 21.0486 3.10827 21.5212 3.29022C22.1462 3.53233 22.5922 3.82303 23.0611 4.29097C23.5299 4.75891 23.8191 5.20523 24.0624 5.82987C24.2462 6.30081 24.4636 7.01 24.5229 8.31439C24.5878 9.72582 24.6008 10.1483 24.6008 13.7211C24.6008 17.2939 24.5878 17.7164 24.5229 19.1278C24.4635 20.4322 24.245 21.1412 24.0624 21.6123C23.8191 22.2369 23.5293 22.6826 23.0611 23.1501C22.5928 23.6177 22.1462 23.9077 21.5212 24.1509C21.05 24.3345 20.3404 24.5518 19.0352 24.6111C17.6241 24.676 17.2002 24.6889 13.6253 24.6889C10.0503 24.6889 9.62761 24.676 8.21695 24.6111ZM8.1061 0.423064C6.68098 0.487925 5.70716 0.713761 4.85671 1.04449C3.97595 1.38603 3.23035 1.84423 2.48529 2.58767C1.74022 3.33111 1.28292 4.07744 0.941181 4.95767C0.610255 5.80814 0.384283 6.78084 0.319383 8.20511C0.253412 9.63163 0.238312 10.0877 0.238312 13.721C0.238312 17.3543 0.253412 17.8103 0.319383 19.2369C0.384283 20.6612 0.610255 21.6338 0.941181 22.4843C1.28292 23.364 1.74033 24.1112 2.48529 24.8543C3.23025 25.5974 3.97595 26.055 4.85671 26.3975C5.70876 26.7282 6.68098 26.954 8.1061 27.0189C9.53422 27.0838 9.98981 27.0999 13.6253 27.0999C17.2608 27.0999 17.7171 27.0848 19.1445 27.0189C20.5697 26.954 21.5429 26.7282 22.3939 26.3975C23.2741 26.055 24.0202 25.5977 24.7653 24.8543C25.5103 24.1109 25.9667 23.364 26.3094 22.4843C26.6403 21.6338 26.8673 20.6611 26.9312 19.2369C26.9961 17.8093 27.0112 17.3543 27.0112 13.721C27.0112 10.0877 26.9961 9.63163 26.9312 8.20511C26.8663 6.78074 26.6403 5.80761 26.3094 4.95767C25.9667 4.07798 25.5092 3.33229 24.7653 2.58767C24.0214 1.84305 23.2741 1.38603 22.3949 1.04449C21.5429 0.713761 20.5696 0.486855 19.1455 0.423064C17.7182 0.358203 17.2618 0.342041 13.6264 0.342041C9.99088 0.342041 9.53422 0.357132 8.1061 0.423064Z" fill="#D9D9D9"/>
</svg>
