<svg width="28" height="28" viewBox="0 0 28 28" fill="none" xmlns="http://www.w3.org/2000/svg">
    <path d="M0.238312 2.25993C0.238312 1.20132 1.12457 0.342041 2.21707 0.342041H25.0335C26.1264 0.342041 27.0122 1.20132 27.0122 2.25993V25.1984C27.0122 26.2573 26.1264 27.116 25.0335 27.116H2.21707C1.12468 27.116 0.238312 26.2574 0.238312 25.1987V2.25962V2.25993Z" fill="#D9D9D9"/>
    <path d="M8.37443 22.7483V10.6946H4.36796V22.7483H8.37485H8.37443ZM6.37203 9.04916C7.76888 9.04916 8.63851 8.12357 8.63851 6.96686C8.61236 5.78378 7.76888 4.88403 6.3986 4.88403C5.02737 4.88403 4.13181 5.78378 4.13181 6.96675C4.13181 8.12347 5.00112 9.04905 6.34578 9.04905H6.37172L6.37203 9.04916ZM10.5921 22.7483H14.5982V16.0177C14.5982 15.6579 14.6244 15.2972 14.7302 15.0402C15.0197 14.3202 15.6789 13.5748 16.7859 13.5748C18.2353 13.5748 18.8154 14.6801 18.8154 16.3006V22.7483H22.8215V15.8371C22.8215 12.1349 20.8452 10.412 18.2094 10.412C16.0483 10.412 15.0992 11.6199 14.5719 12.4425H14.5985V10.695H10.5923C10.6446 11.8258 10.592 22.7487 10.592 22.7487L10.5921 22.7483Z" fill="#F7F7F7"/>
</svg>
